<svg width="24" height="49" viewBox="0 0 24 49" fill="none" xmlns="http://www.w3.org/2000/svg">
<rect x="1" y="13.5" width="22" height="22" rx="11" stroke="#E2E8F0" stroke-width="2"/>
<path d="M11.9098 27.516L11.5858 30.603C11.572 30.7336 11.5326 30.8602 11.4699 30.9756C11.4072 31.091 11.3224 31.1929 11.2203 31.2755C11.1182 31.3581 11.0008 31.4197 10.8749 31.457C10.7489 31.4942 10.6169 31.5063 10.4863 31.4925C10.3557 31.4787 10.2291 31.4393 10.1137 31.3766C9.99833 31.3139 9.89643 31.2291 9.81384 31.127C9.73124 31.0249 9.66956 30.9075 9.63232 30.7816C9.59508 30.6556 9.58301 30.5236 9.5968 30.393L10.3198 23.51H7.0098C6.74419 23.51 6.48945 23.4045 6.30163 23.2167C6.11382 23.0289 6.0083 22.7741 6.0083 22.5085C6.0083 22.2429 6.11382 21.9882 6.30163 21.8003C6.48945 21.6125 6.74419 21.507 7.0098 21.507H17.0098C17.2754 21.507 17.5302 21.6125 17.718 21.8003C17.9058 21.9882 18.0113 22.2429 18.0113 22.5085C18.0113 22.7741 17.9058 23.0289 17.718 23.2167C17.5302 23.4045 17.2754 23.51 17.0098 23.51H13.6998L14.4228 30.395C14.4411 30.5279 14.4326 30.6632 14.3976 30.7927C14.3626 30.9223 14.3019 31.0435 14.2192 31.1491C14.1364 31.2548 14.0333 31.3427 13.9159 31.4076C13.7985 31.4726 13.6692 31.5133 13.5357 31.5273C13.4023 31.5414 13.2674 31.5284 13.139 31.4892C13.0107 31.4501 12.8915 31.3855 12.7886 31.2994C12.6857 31.2132 12.6012 31.1073 12.5401 30.9878C12.479 30.8684 12.4425 30.7378 12.4328 30.604L12.1098 27.516H11.9098ZM12.0098 21.506C10.9048 21.506 10.0098 20.609 10.0098 19.503C10.0098 18.397 10.9048 17.5 12.0098 17.5C13.1148 17.5 14.0098 18.397 14.0098 19.503C14.0101 20.0338 13.7995 20.543 13.4245 20.9186C13.0494 21.2942 12.5406 21.5055 12.0098 21.506Z" fill="#E2E8F0"/>
</svg>
